<?xml version="1.0" encoding="UTF-8" standalone="no"?>
<svg
   xmlns:dc="http://purl.org/dc/elements/1.1/"
   xmlns:cc="http://creativecommons.org/ns#"
   xmlns:rdf="http://www.w3.org/1999/02/22-rdf-syntax-ns#"
   xmlns:svg="http://www.w3.org/2000/svg"
   xmlns="http://www.w3.org/2000/svg"
   xmlns:sodipodi="http://sodipodi.sourceforge.net/DTD/sodipodi-0.dtd"
   xmlns:inkscape="http://www.inkscape.org/namespaces/inkscape"
   height="500"
   width="500"
   version="1.1"
   x="0px"
   y="0px"
   viewBox="0 0 500 500"
   xml:space="preserve"
   id="svg40"
   sodipodi:docname="logo.svg"
   inkscape:version="1.0 (4035a4fb49, 2020-05-01)"
   inkscape:export-filename="D:\Programming\Workspace\Javascript\VS Code\vscode-markdown-shortcuts\img\logo.png"
   inkscape:export-xdpi="49.152"
   inkscape:export-ydpi="49.152"><metadata
     id="metadata46"><rdf:RDF><cc:Work
         rdf:about=""><dc:format>image/svg+xml</dc:format><dc:type
           rdf:resource="http://purl.org/dc/dcmitype/StillImage" /><dc:title /></cc:Work></rdf:RDF></metadata><defs
     id="defs44" /><sodipodi:namedview
     inkscape:document-rotation="0"
     pagecolor="#ffffff"
     bordercolor="#666666"
     borderopacity="1"
     objecttolerance="10"
     gridtolerance="10"
     guidetolerance="10"
     inkscape:pageopacity="0"
     inkscape:pageshadow="2"
     inkscape:window-width="925"
     inkscape:window-height="821"
     id="namedview42"
     showgrid="false"
     inkscape:zoom="0.34235764"
     inkscape:cx="250.55203"
     inkscape:cy="263.65074"
     inkscape:window-x="666"
     inkscape:window-y="0"
     inkscape:window-maximized="0"
     inkscape:current-layer="svg40" /><path
     d="M 50,31.003477 V 89.81793 H 0 V 266.26325 H 50 V 330.95856 330.96051 H 105.55469 V 383.89215 H 161.11133 V 448.58942 H 166.66602 216.66602 V 501.52301 H 283.33398 V 448.58942 H 338.88867 V 383.89215 H 394.44531 V 330.96051 H 450 V 330.95856 266.26325 H 500 V 89.81793 H 450 V 31.003477 H 277.77734 V 89.81793 H 222.22266 V 31.003477 Z"
     style="fill:#ff0000;fill-opacity:1;fill-rule:evenodd;stroke:none;stroke-width:2.96299;stroke-linejoin:round;stroke-opacity:1"
     id="rect882" /><g
     transform="matrix(0.65757058,0,0,0.65757058,437.98538,75.191649)"
     id="g878"><g
       transform="matrix(0.84594527,0,0,0.84594527,-497.37472,28.973405)"
       id="g34"><path
         style="fill:#000000"
         sodipodi:nodetypes="sccsssssscsccccc"
         id="path2"
         d="M 464.6,193.8 H 260.4 240.3 35.3 C 29.8,193.8 25.3,198.3 25.3,203.8 V 417.5 C 25.3,423 29.8,427.5 35.3,427.5 H 464.5 C 470,427.5 474.5,423 474.5,417.5 V 203.8 C 474.6,198.3 470.1,193.8 464.6,193.8 Z M 454.6,407.5 H 45.4 V 213.8 H 454.6 Z" /><path
         id="path4"
         d="M 85.2,272.7 H 99.4 C 105.8,272.7 110.9,267.5 110.9,261.2 V 247 C 110.9,240.6 105.7,235.5 99.4,235.5 H 85.2 C 78.8,235.5 73.7,240.7 73.7,247 V 261.2 C 73.7,267.5 78.8,272.7 85.2,272.7 Z" /><path
         id="path6"
         d="M 147.4,272.7 H 161.6 C 168,272.7 173.1,267.5 173.1,261.2 V 247 C 173.1,240.6 167.9,235.5 161.6,235.5 H 147.4 C 141,235.5 135.9,240.7 135.9,247 V 261.2 C 135.9,267.5 141.1,272.7 147.4,272.7 Z" /><path
         id="path8"
         d="M 209.6,272.7 H 223.8 C 230.2,272.7 235.3,267.5 235.3,261.2 V 247 C 235.3,240.6 230.1,235.5 223.8,235.5 H 209.6 C 203.2,235.5 198.1,240.7 198.1,247 V 261.2 C 198.1,267.5 203.3,272.7 209.6,272.7 Z" /><path
         id="path10"
         d="M 271.9,272.7 H 286.1 C 292.5,272.7 297.6,267.5 297.6,261.2 V 247 C 297.6,240.6 292.4,235.5 286.1,235.5 H 271.9 C 265.5,235.5 260.4,240.7 260.4,247 V 261.2 C 260.3,267.5 265.5,272.7 271.9,272.7 Z" /><path
         id="path12"
         d="M 334.1,272.7 H 348.3 C 354.7,272.7 359.8,267.5 359.8,261.2 V 247 C 359.8,240.6 354.6,235.5 348.3,235.5 H 334.1 C 327.7,235.5 322.6,240.7 322.6,247 V 261.2 C 322.5,267.5 327.7,272.7 334.1,272.7 Z" /><path
         id="path14"
         d="M 396.3,272.7 H 410.5 C 416.9,272.7 422,267.5 422,261.2 V 247 C 422,240.6 416.8,235.5 410.5,235.5 H 396.3 C 389.9,235.5 384.8,240.7 384.8,247 V 261.2 C 384.7,267.5 389.9,272.7 396.3,272.7 Z" /><path
         id="path16"
         d="M 85.2,328 H 99.4 C 105.8,328 110.9,322.8 110.9,316.5 V 302.3 C 110.9,295.9 105.7,290.8 99.4,290.8 H 85.2 C 78.8,290.8 73.7,296 73.7,302.3 V 316.5 C 73.7,322.8 78.8,328 85.2,328 Z" /><path
         id="path18"
         d="M 147.4,328 H 161.6 C 168,328 173.1,322.8 173.1,316.5 V 302.3 C 173.1,295.9 167.9,290.8 161.6,290.8 H 147.4 C 141,290.8 135.9,296 135.9,302.3 V 316.5 C 135.9,322.8 141.1,328 147.4,328 Z" /><path
         id="path20"
         d="M 209.6,328 H 223.8 C 230.2,328 235.3,322.8 235.3,316.5 V 302.3 C 235.3,295.9 230.1,290.8 223.8,290.8 H 209.6 C 203.2,290.8 198.1,296 198.1,302.3 V 316.5 C 198.1,322.8 203.3,328 209.6,328 Z" /><path
         id="path22"
         d="M 271.9,328 H 286.1 C 292.5,328 297.6,322.8 297.6,316.5 V 302.3 C 297.6,295.9 292.4,290.8 286.1,290.8 H 271.9 C 265.5,290.8 260.4,296 260.4,302.3 V 316.5 C 260.3,322.8 265.5,328 271.9,328 Z" /><path
         id="path24"
         d="M 334.1,328 H 348.3 C 354.7,328 359.8,322.8 359.8,316.5 V 302.3 C 359.8,295.9 354.6,290.8 348.3,290.8 H 334.1 C 327.7,290.8 322.6,296 322.6,302.3 V 316.5 C 322.5,322.8 327.7,328 334.1,328 Z" /><path
         id="path26"
         d="M 396.3,328 H 410.5 C 416.9,328 422,322.8 422,316.5 V 302.3 C 422,295.9 416.8,290.8 410.5,290.8 H 396.3 C 389.9,290.8 384.8,296 384.8,302.3 V 316.5 C 384.7,322.8 389.9,328 396.3,328 Z" /><path
         id="path28"
         d="M 85.2,383.3 H 99.4 C 105.8,383.3 110.9,378.1 110.9,371.8 V 357.6 C 110.9,351.2 105.7,346.1 99.4,346.1 H 85.2 C 78.8,346.1 73.7,351.3 73.7,357.6 V 371.8 C 73.7,378.1 78.8,383.3 85.2,383.3 Z" /><path
         id="path30"
         d="M 396.3,383.3 H 410.5 C 416.9,383.3 422,378.1 422,371.8 V 357.6 C 422,351.2 416.8,346.1 410.5,346.1 H 396.3 C 389.9,346.1 384.8,351.3 384.8,357.6 V 371.8 C 384.7,378.1 389.9,383.3 396.3,383.3 Z" /><path
         sodipodi:nodetypes="sssssssss"
         id="path32"
         d="M 147.4,383.3 C 213.59525,413.52728 278.92717,408.60872 349.5,383.3 355.52433,381.13956 361,378.1 361,371.8 V 357.6 C 361,351.2 355.38425,343.84934 349.5,346.1 289.13148,369.1903 225.89255,384.79154 147.4,346.1 141.65953,343.27033 135.9,351.3 135.9,357.6 V 371.8 C 135.9,378.1 141.66921,380.6831 147.4,383.3 Z" /></g><ellipse
       ry="7.8017688"
       rx="7.8017702"
       cy="244.50388"
       cx="-367.91516"
       id="path882"
       style="fill:#ffffff;fill-opacity:1;fill-rule:evenodd;stroke:#000000;stroke-width:1.31537;stroke-linecap:square;stroke-linejoin:round;stroke-opacity:1;paint-order:stroke fill markers" /><ellipse
       style="fill:#ffffff;fill-opacity:1;fill-rule:evenodd;stroke:#000000;stroke-width:1.31537;stroke-linecap:square;stroke-linejoin:round;stroke-opacity:1;paint-order:stroke fill markers"
       id="path882-0"
       cx="-208.39058"
       cy="244.02592"
       rx="7.8017702"
       ry="7.8017688" /></g><text
     xml:space="preserve"
     style="font-size:64px;line-height:40px;font-family:'Century Gothic';-inkscape-font-specification:'Century Gothic';writing-mode:lr-tb;fill:#ffffff;fill-opacity:1;fill-rule:evenodd;stroke:#ffffff;stroke-width:1.5;stroke-linecap:square;stroke-linejoin:round;stroke-opacity:1;paint-order:stroke fill markers"
     x="-940.76801"
     y="44.800278"
     id="text901"
     inkscape:transform-center-x="-49.12991"
     inkscape:transform-center-y="16.376637"><tspan
       sodipodi:role="line"
       id="tspan899"
       x="-940.76801"
       y="44.800278"
       style="font-style:normal;font-variant:normal;font-weight:normal;font-stretch:normal;font-size:42.6667px;font-family:'Century Gothic';-inkscape-font-specification:'Century Gothic, Normal';font-variant-ligatures:normal;font-variant-caps:normal;font-variant-numeric:normal;font-variant-east-asian:normal;fill:#ffffff;fill-opacity:1;stroke:#ffffff;stroke-opacity:1"># MARKDOWN<tspan
   style="font-style:normal;font-variant:normal;font-weight:normal;font-stretch:normal;font-size:42.6667px;font-family:'Century Gothic';-inkscape-font-specification:'Century Gothic, Normal';font-variant-ligatures:normal;font-variant-caps:normal;font-variant-numeric:normal;font-variant-east-asian:normal;fill:#ffffff;fill-opacity:1;stroke:#ffffff;stroke-opacity:1"
   id="tspan903"> </tspan></tspan></text><text
     id="text891"
     y="170.92833"
     x="72.967476"
     style="font-size:74.6667px;line-height:42px;font-family:'Lucida Calligraphy';-inkscape-font-specification:'Lucida Calligraphy, Normal';writing-mode:lr-tb;fill:#000000;fill-opacity:1;fill-rule:evenodd;stroke:none;stroke-width:3;stroke-linejoin:round;stroke-opacity:1;"
     xml:space="preserve"><tspan
       style="font-style:normal;font-variant:normal;font-weight:bold;font-stretch:condensed;font-size:74.6667px;font-family:'Agency FB';-inkscape-font-specification:'Agency FB, Bold Condensed';font-variant-ligatures:normal;font-variant-caps:normal;font-variant-numeric:normal;font-variant-east-asian:normal;fill:#000000;stroke:none;"
       y="170.92833"
       x="72.967476"
       id="tspan889"
       sodipodi:role="line"># MARKDOWN</tspan></text></svg>
